<svg xmlns="http://www.w3.org/2000/svg" viewBox="0 0 1280 900" width="1280" height="900" role="img" aria-labelledby="fig20-title fig20-desc">
<title id="fig20-title">Figure 20 — Light and dark, side by side</title>
<desc id="fig20-desc">The same panel fragment — panel header, tree rows including a selected row, a graph canvas strip and a status bar — rendered in the light theme and the dark theme, with every surface, stroke, text and Entity colour annotated by its token name and hex value in both themes. A closing note records that the dark values were chosen independently and lists the three pairs that fail their contrast threshold.</desc>
<style>
  text{font-family:"Segoe UI Variable Text","Segoe UI Variable","Segoe UI",system-ui,-apple-system,sans-serif}
  .fig{font-size:12px;fill:#5A5A5A;letter-spacing:.10em}
  .title{font-family:"Segoe UI Variable Display","Segoe UI Variable","Segoe UI",system-ui,sans-serif;font-size:20px;font-weight:600;fill:#1B1B1B}
  .sub{font-size:13px;fill:#5A5A5A}
  .cap{font-size:12px;fill:#5A5A5A}
  .ct{font-size:13px;font-weight:600;fill:#1B1B1B}
  .kind{font-size:11px;font-weight:600;fill:#5A5A5A;letter-spacing:.06em}
  .tok{font-family:"Cascadia Mono","Cascadia Code",Consolas,ui-monospace,monospace;font-size:10.5px;fill:#5A5A5A}
  .tokk{font-family:"Cascadia Mono","Cascadia Code",Consolas,ui-monospace,monospace;font-size:10.5px;fill:#0F6CBD;font-weight:600}
  .lead{stroke:#0F6CBD;stroke-width:1;fill:none}
  .frame{fill:none;stroke:#C4C4C4;stroke-width:1.5}
  .ann{stroke:#0F6CBD;stroke-width:1.5;fill:none;stroke-dasharray:5 4}
  .fail{fill:#B10E1C;font-size:12px;font-weight:600}
</style>
<rect width="1280" height="900" fill="#F3F3F3"/>
<text class="fig" x="32" y="30">FIGURE 20</text>
<text class="title" x="32" y="58">Light and dark — the same fragment, two independently chosen palettes</text>
<text class="sub" x="32" y="80">Dark is not light inverted. Each value was picked against its own ground and audited on its own terms; three pairs still fail, and are named rather than hidden.</text>

<!-- ═══════════ LIGHT ═══════════ -->
<text class="kind" x="32" y="116">LIGHT — DEFAULT</text>
<g>
  <rect x="32" y="128" width="520" height="340" rx="8" fill="#F3F3F3"/>
  <!-- panel -->
  <rect x="48" y="144" width="240" height="308" rx="8" fill="#FFFFFF"/>
  <rect x="48" y="144" width="240" height="32" fill="#FFFFFF"/>
  <line x1="48" y1="176" x2="288" y2="176" stroke="#EAEAEA"/>
  <text x="64" y="165" font-size="11" font-weight="600" fill="#5A5A5A" letter-spacing=".02em">CLASSES</text>
  <text x="132" y="165" font-size="11" fill="#5A5A5A">114</text>
  <!-- tree rows -->
  <rect x="52" y="184" width="232" height="24" rx="4" fill="#FFFFFF"/>
  <path d="M64 192 l4 4 l-4 4" stroke="#5A5A5A" stroke-width="1.5" fill="none"/>
  <rect x="78" y="189" width="11" height="11" rx="3" fill="#0F6CBD"/>
  <text x="96" y="200" font-size="12" fill="#1B1B1B">Food</text>
  <rect x="52" y="208" width="232" height="24" rx="4" fill="#EAF3FB"/>
  <path d="M78 216 l4 4 l-4 4" stroke="#5A5A5A" stroke-width="1.5" fill="none"/>
  <rect x="92" y="213" width="11" height="11" rx="3" fill="#0F6CBD"/>
  <text x="110" y="224" font-size="12" font-weight="600" fill="#1B1B1B">Pizza</text>
  <text x="266" y="224" font-size="11" fill="#1B1B1B" text-anchor="end">22</text>
  <rect x="52" y="232" width="232" height="24" rx="4" fill="#F7F7F7"/>
  <rect x="106" y="237" width="11" height="11" rx="3" fill="#B36A00"/>
  <path d="M108.2 242.5 h6.6 M111.5 239.2 v6.6" stroke="#FFFFFF" stroke-width="1.6"/>
  <text x="124" y="248" font-size="12" fill="#1B1B1B">CheesyPizza</text>
  <rect x="52" y="256" width="232" height="24" rx="4" fill="#FFFFFF"/>
  <circle cx="111" cy="268" r="5.5" fill="#0E7C66"/>
  <text x="124" y="272" font-size="12" fill="#1B1B1B">Pizza_000001</text>
  <!-- field -->
  <rect x="64" y="300" width="208" height="28" rx="4" fill="#FFFFFF" stroke="#C4C4C4"/>
  <text x="76" y="318" font-size="12" fill="#5A5A5A">Filter hierarchy</text>
  <!-- button -->
  <rect x="64" y="340" width="96" height="28" rx="4" fill="#0F6CBD"/>
  <text x="112" y="358" font-size="12" font-weight="600" fill="#FFFFFF" text-anchor="middle">New class</text>
  <rect x="168" y="340" width="104" height="28" rx="4" fill="#FFFFFF" stroke="#C4C4C4"/>
  <text x="220" y="358" font-size="12" fill="#1B1B1B" text-anchor="middle">Cancel</text>
  <!-- canvas strip -->
  <rect x="304" y="144" width="232" height="252" rx="8" fill="#F7F7F9"/>
  <g fill="#E4E4EA">
    <rect x="322" y="162" width="1.5" height="1.5"/><rect x="356" y="162" width="1.5" height="1.5"/><rect x="390" y="162" width="1.5" height="1.5"/><rect x="424" y="162" width="1.5" height="1.5"/><rect x="458" y="162" width="1.5" height="1.5"/><rect x="492" y="162" width="1.5" height="1.5"/>
    <rect x="322" y="196" width="1.5" height="1.5"/><rect x="356" y="196" width="1.5" height="1.5"/><rect x="390" y="196" width="1.5" height="1.5"/><rect x="424" y="196" width="1.5" height="1.5"/><rect x="458" y="196" width="1.5" height="1.5"/><rect x="492" y="196" width="1.5" height="1.5"/>
    <rect x="322" y="230" width="1.5" height="1.5"/><rect x="356" y="230" width="1.5" height="1.5"/><rect x="390" y="230" width="1.5" height="1.5"/><rect x="424" y="230" width="1.5" height="1.5"/><rect x="458" y="230" width="1.5" height="1.5"/><rect x="492" y="230" width="1.5" height="1.5"/>
  </g>
  <g stroke="#C4C4C4" stroke-width="1.15" fill="none">
    <path d="M420 218 V246 H366 V264"/><path d="M420 218 V246 H474 V264"/>
  </g>
  <rect x="409" y="207" width="22" height="22" rx="5" fill="#0F6CBD"/>
  <rect x="357" y="264" width="18" height="18" rx="4" fill="#0F6CBD"/>
  <circle cx="474" cy="273" r="8.7" fill="#0E7C66"/>
  <text x="420" y="246" font-size="10.5" font-weight="600" fill="#1B1B1B" text-anchor="middle">Pizza</text>
  <text x="366" y="298" font-size="10.5" font-weight="600" fill="#1B1B1B" text-anchor="middle">NamedPizza</text>
  <text x="474" y="298" font-size="10.5" fill="#1B1B1B" text-anchor="middle">Pizza_000001</text>
  <rect x="425" y="199" width="26" height="13" rx="6.5" fill="#FFFFFF" stroke="#C4C4C4"/>
  <text x="438" y="208.5" font-size="9" font-weight="600" fill="#5A5A5A" text-anchor="middle">+18</text>
  <!-- status -->
  <rect x="304" y="404" width="232" height="26" rx="4" fill="#FAFAFA"/>
  <text x="316" y="421" font-size="11" fill="#5A5A5A">In view <tspan font-weight="600" fill="#1B1B1B">62</tspan> nodes</text>
  <rect x="32" y="128" width="520" height="340" rx="8" class="frame"/>
</g>

<!-- ═══════════ DARK ═══════════ -->
<text class="kind" x="588" y="116">DARK — INDEPENDENTLY AUTHORED</text>
<g>
  <rect x="588" y="128" width="520" height="340" rx="8" fill="#202020"/>
  <rect x="604" y="144" width="240" height="308" rx="8" fill="#2B2B2B"/>
  <rect x="604" y="144" width="240" height="32" fill="#2B2B2B"/>
  <line x1="604" y1="176" x2="844" y2="176" stroke="#343434"/>
  <text x="620" y="165" font-size="11" font-weight="600" fill="#C2C2C2" letter-spacing=".02em">CLASSES</text>
  <text x="688" y="165" font-size="11" fill="#C2C2C2">114</text>
  <rect x="608" y="184" width="232" height="24" rx="4" fill="#2B2B2B"/>
  <path d="M620 192 l4 4 l-4 4" stroke="#C2C2C2" stroke-width="1.5" fill="none"/>
  <rect x="634" y="189" width="11" height="11" rx="3" fill="#6CB8F6"/>
  <text x="652" y="200" font-size="12" fill="#F5F5F5">Food</text>
  <rect x="608" y="208" width="232" height="24" rx="4" fill="#143349"/>
  <path d="M634 216 l4 4 l-4 4" stroke="#C2C2C2" stroke-width="1.5" fill="none"/>
  <rect x="648" y="213" width="11" height="11" rx="3" fill="#6CB8F6"/>
  <text x="666" y="224" font-size="12" font-weight="600" fill="#F5F5F5">Pizza</text>
  <text x="822" y="224" font-size="11" fill="#F5F5F5" text-anchor="end">22</text>
  <rect x="608" y="232" width="232" height="24" rx="4" fill="#313131"/>
  <rect x="662" y="237" width="11" height="11" rx="3" fill="#E3A13C"/>
  <path d="M664.2 242.5 h6.6 M667.5 239.2 v6.6" stroke="#2B2B2B" stroke-width="1.6"/>
  <text x="680" y="248" font-size="12" fill="#F5F5F5">CheesyPizza</text>
  <rect x="608" y="256" width="232" height="24" rx="4" fill="#2B2B2B"/>
  <circle cx="667" cy="268" r="5.5" fill="#5FCFB4"/>
  <text x="680" y="272" font-size="12" fill="#F5F5F5">Pizza_000001</text>
  <rect x="620" y="300" width="208" height="28" rx="4" fill="#2B2B2B" stroke="#565656"/>
  <text x="632" y="318" font-size="12" fill="#C2C2C2">Filter hierarchy</text>
  <rect x="620" y="340" width="96" height="28" rx="4" fill="#6CB8F6"/>
  <text x="668" y="358" font-size="12" font-weight="600" fill="#06121C" text-anchor="middle">New class</text>
  <rect x="724" y="340" width="104" height="28" rx="4" fill="#2B2B2B" stroke="#565656"/>
  <text x="776" y="358" font-size="12" fill="#F5F5F5" text-anchor="middle">Cancel</text>
  <rect x="860" y="144" width="232" height="252" rx="8" fill="#17171A"/>
  <g fill="#27272C">
    <rect x="878" y="162" width="1.5" height="1.5"/><rect x="912" y="162" width="1.5" height="1.5"/><rect x="946" y="162" width="1.5" height="1.5"/><rect x="980" y="162" width="1.5" height="1.5"/><rect x="1014" y="162" width="1.5" height="1.5"/><rect x="1048" y="162" width="1.5" height="1.5"/>
    <rect x="878" y="196" width="1.5" height="1.5"/><rect x="912" y="196" width="1.5" height="1.5"/><rect x="946" y="196" width="1.5" height="1.5"/><rect x="980" y="196" width="1.5" height="1.5"/><rect x="1014" y="196" width="1.5" height="1.5"/><rect x="1048" y="196" width="1.5" height="1.5"/>
    <rect x="878" y="230" width="1.5" height="1.5"/><rect x="912" y="230" width="1.5" height="1.5"/><rect x="946" y="230" width="1.5" height="1.5"/><rect x="980" y="230" width="1.5" height="1.5"/><rect x="1014" y="230" width="1.5" height="1.5"/><rect x="1048" y="230" width="1.5" height="1.5"/>
  </g>
  <g stroke="#565656" stroke-width="1.15" fill="none">
    <path d="M976 218 V246 H922 V264"/><path d="M976 218 V246 H1030 V264"/>
  </g>
  <rect x="965" y="207" width="22" height="22" rx="5" fill="#6CB8F6"/>
  <rect x="913" y="264" width="18" height="18" rx="4" fill="#6CB8F6"/>
  <circle cx="1030" cy="273" r="8.7" fill="#5FCFB4"/>
  <text x="976" y="246" font-size="10.5" font-weight="600" fill="#F5F5F5" text-anchor="middle">Pizza</text>
  <text x="922" y="298" font-size="10.5" font-weight="600" fill="#F5F5F5" text-anchor="middle">NamedPizza</text>
  <text x="1030" y="298" font-size="10.5" fill="#F5F5F5" text-anchor="middle">Pizza_000001</text>
  <rect x="981" y="199" width="26" height="13" rx="6.5" fill="#2B2B2B" stroke="#565656"/>
  <text x="994" y="208.5" font-size="9" font-weight="600" fill="#C2C2C2" text-anchor="middle">+18</text>
  <rect x="860" y="404" width="232" height="26" rx="4" fill="#272727"/>
  <text x="872" y="421" font-size="11" fill="#C2C2C2">In view <tspan font-weight="600" fill="#F5F5F5">62</tspan> nodes</text>
  <rect x="588" y="128" width="520" height="340" rx="8" class="frame"/>
</g>

<!-- ═══════════ token table ═══════════ -->
<text class="kind" x="32" y="510">TOKEN PAIRS — THE SAME NAME, TWO INDEPENDENT VALUES</text>
<rect x="32" y="522" width="1216" height="228" rx="8" fill="#FFFFFF" stroke="#C4C4C4" stroke-width="1.5"/>

<text class="tok" x="52" y="546" font-weight="600" fill="#1B1B1B">TOKEN</text>
<text class="tok" x="300" y="546" font-weight="600" fill="#1B1B1B">LIGHT</text>
<text class="tok" x="430" y="546" font-weight="600" fill="#1B1B1B">DARK</text>
<text class="tok" x="560" y="546" font-weight="600" fill="#1B1B1B">ROLE IN THE FRAGMENT ABOVE</text>
<line x1="52" y1="554" x2="1228" y2="554" stroke="#E1E1E1"/>

<g class="tok">
  <text x="52" y="574">--ground</text>          <rect x="290" y="565" width="12" height="12" fill="#F3F3F3" stroke="#C4C4C4"/><text x="308" y="574">#F3F3F3</text> <rect x="420" y="565" width="12" height="12" fill="#202020" stroke="#565656"/><text x="438" y="574">#202020</text> <text x="560" y="574">the workspace behind the panels</text>
  <text x="52" y="594">--surface</text>         <rect x="290" y="585" width="12" height="12" fill="#FFFFFF" stroke="#C4C4C4"/><text x="308" y="594">#FFFFFF</text> <rect x="420" y="585" width="12" height="12" fill="#2B2B2B" stroke="#565656"/><text x="438" y="594">#2B2B2B</text> <text x="560" y="594">panel body, flyouts, dialogs</text>
  <text x="52" y="614">--surface-alt</text>     <rect x="290" y="605" width="12" height="12" fill="#FAFAFA" stroke="#C4C4C4"/><text x="308" y="614">#FAFAFA</text> <rect x="420" y="605" width="12" height="12" fill="#272727" stroke="#565656"/><text x="438" y="614">#272727</text> <text x="560" y="614">status bar, dock head, table head</text>
  <text x="52" y="634">--canvas</text>          <rect x="290" y="625" width="12" height="12" fill="#F7F7F9" stroke="#C4C4C4"/><text x="308" y="634">#F7F7F9</text> <rect x="420" y="625" width="12" height="12" fill="#17171A" stroke="#565656"/><text x="438" y="634">#17171A</text> <text x="560" y="634">graph ground — deeper than the panels in both themes</text>
  <text x="52" y="654">--canvas-grid</text>     <rect x="290" y="645" width="12" height="12" fill="#E4E4EA" stroke="#C4C4C4"/><text x="308" y="654">#E4E4EA</text> <rect x="420" y="645" width="12" height="12" fill="#27272C" stroke="#565656"/><text x="438" y="654">#27272C</text> <text x="560" y="654">the dot field that makes the canvas read as a workspace</text>
  <text x="52" y="674">--text</text>            <rect x="290" y="665" width="12" height="12" fill="#1B1B1B" stroke="#C4C4C4"/><text x="308" y="674">#1B1B1B</text> <rect x="420" y="665" width="12" height="12" fill="#F5F5F5" stroke="#565656"/><text x="438" y="674">#F5F5F5</text> <text x="560" y="674">15.9:1 light · 13.6:1 dark — both comfortable</text>
  <text x="52" y="694">--text-secondary</text>  <rect x="290" y="685" width="12" height="12" fill="#5A5A5A" stroke="#C4C4C4"/><text x="308" y="694">#5A5A5A</text> <rect x="420" y="685" width="12" height="12" fill="#C2C2C2" stroke="#565656"/><text x="438" y="694">#C2C2C2</text> <text x="560" y="694">7.0:1 light · 8.1:1 dark</text>
  <text x="52" y="714">--accent</text>          <rect x="290" y="705" width="12" height="12" fill="#0F6CBD" stroke="#C4C4C4"/><text x="308" y="714">#0F6CBD</text> <rect x="420" y="705" width="12" height="12" fill="#6CB8F6" stroke="#565656"/><text x="438" y="714">#6CB8F6</text> <text x="560" y="714">a light-theme blue would vanish on #2B2B2B — hence a separate value</text>
  <text x="52" y="734">--e-individual</text>    <rect x="290" y="725" width="12" height="12" fill="#0E7C66" stroke="#C4C4C4"/><text x="308" y="734">#0E7C66</text> <rect x="420" y="725" width="12" height="12" fill="#5FCFB4" stroke="#565656"/><text x="438" y="734">#5FCFB4</text> <text x="560" y="734">every Entity colour is re-picked, never lightened programmatically</text>
</g>

<rect class="ann" x="32" y="766" width="1216" height="64" rx="8"/>
<text class="fail" x="52" y="790">Three pairs fail their threshold and are recorded as defects, not quietly accepted:</text>
<text class="cap" x="52" y="810">--stroke-strong at 1.74:1 light and 1.93:1 dark against --surface, where 3:1 applies because it is the sole boundary of fields and outline buttons and the colour of every graph edge; the SPARQL IRI token at 4.38:1; the comment token at 2.95:1.</text>

<text class="cap" x="32" y="866">Figure 20 · Theme comparison. Illustrates 40-design-system.md, “The complete token catalogue” and “Contrast audit”. [src: the :root and [data-theme="dark"] token blocks, refreshPalette(), setTheme()]</text>
<text class="cap" x="32" y="886">The renderer caches its palette, so a theme change must re-read every cached colour before the next frame; a stale cache shows as a light-theme graph on a dark ground.</text>
</svg>
